<?xml version="1.0" encoding="UTF-8"?>
<svg width="96.579mm" height="36.391mm" version="1.1" viewBox="0 0 96.579 36.391" xmlns="http://www.w3.org/2000/svg" xmlns:cc="http://creativecommons.org/ns#" xmlns:dc="http://purl.org/dc/elements/1.1/" xmlns:rdf="http://www.w3.org/1999/02/22-rdf-syntax-ns#">
 <metadata>
  <rdf:RDF>
   <cc:Work rdf:about="">
    <dc:format>image/svg+xml</dc:format>
    <dc:type rdf:resource="http://purl.org/dc/dcmitype/StillImage"/>
    <dc:title/>
   </cc:Work>
  </rdf:RDF>
 </metadata>
 <g transform="translate(-19.387 -480.12)">
  <rect x="20.955" y="481.69" width="33.256" height="33.256" ry="4.2699" fill="none" stroke="#000" stroke-width="3.135"/>
  <path d="m31.331 507.2q-0.2794 0-0.4572-0.1778t-0.1778-0.4572v-16.51q0-0.2794 0.1778-0.4572t0.4572-0.1778h7.5438q2.1082 0 3.4544 0.6096t1.9812 1.7272q0.6604 1.1176 0.6604 2.6162 0 0.9398-0.3556 1.651-0.3302 0.7112-0.8382 1.1684-0.4826 0.4572-0.9398 0.6858 0.9906 0.4572 1.7272 1.524 0.762 1.0414 0.762 2.4892 0 1.6002-0.7112 2.794t-2.1082 1.8542-3.4036 0.6604zm3.4036-2.9718h3.8862q1.2446 0 1.8796-0.6858 0.635-0.7112 0.635-1.6764 0-0.9906-0.6604-1.651-0.635-0.6858-1.8542-0.6858h-3.8862zm0-7.62h3.6576q1.1938 0 1.778-0.5842 0.6096-0.6096 0.6096-1.5494t-0.6096-1.4986q-0.5842-0.5842-1.778-0.5842h-3.6576z"/>
  <g transform="translate(2.1167)">
   <path d="m59.832 507.2q-0.2286 0-0.381-0.1524-0.1524-0.1778-0.1524-0.381 0-0.127 0.0254-0.2286l6.0452-16.332q0.0762-0.2794 0.3048-0.4826t0.635-0.2032h3.2512q0.4064 0 0.635 0.2032t0.3048 0.4826l6.0452 16.332q0.0254 0.1016 0.0254 0.2286 0 0.2032-0.1524 0.381-0.1524 0.1524-0.381 0.1524h-2.6416q-0.381 0-0.5588-0.1778t-0.2286-0.3302l-1.0922-2.8448h-7.1628l-1.0922 2.8448q-0.0508 0.1524-0.2286 0.3302t-0.5588 0.1778zm5.461-6.6294h5.2578l-2.6162-7.3152z"/>
   <path d="m87.535 507.46q-2.4384 0-4.0894-0.7112-1.6256-0.7112-2.4638-1.8542t-0.889-2.4384q0-0.2032 0.1524-0.3556 0.1524-0.1778 0.381-0.1778h2.7178q0.3302 0 0.508 0.1524 0.1778 0.127 0.3302 0.3302 0.1778 0.4318 0.5588 0.8382 0.4064 0.4064 1.0922 0.6858 0.6858 0.254 1.7018 0.254 1.651 0 2.4638-0.5334 0.8382-0.5334 0.8382-1.4478 0-0.6604-0.4572-1.0668-0.4318-0.4064-1.397-0.7366-0.9398-0.3302-2.5146-0.7112-1.905-0.4064-3.2512-1.0414-1.3208-0.6604-2.0066-1.6764-0.6604-1.0414-0.6604-2.5654t0.8382-2.6924q0.8382-1.1938 2.3622-1.8542 1.524-0.6858 3.6322-0.6858 1.7018 0 2.9972 0.4572 1.3208 0.4572 2.1844 1.1938 0.889 0.7366 1.3462 1.5748t0.4826 1.6256q0 0.2032-0.1524 0.381-0.1524 0.1524-0.381 0.1524h-2.8448q-0.254 0-0.4572-0.1016t-0.3302-0.3556q-0.1524-0.6604-0.9144-1.143-0.7366-0.508-1.9304-0.508-1.2446 0-1.9812 0.4572-0.7112 0.4572-0.7112 1.397 0 0.6096 0.3556 1.0414 0.381 0.4064 1.2446 0.7366 0.889 0.3048 2.3368 0.6858 2.2352 0.4572 3.6322 1.0922t2.0574 1.651q0.6604 0.9906 0.6604 2.5146 0 1.7018-0.9652 2.921-0.9398 1.2192-2.6162 1.8796-1.651 0.635-3.8608 0.635z"/>
   <path d="m101.5 507.2q-0.27941 0-0.4572-0.1778-0.1778-0.1778-0.1778-0.4572v-16.51q0-0.2794 0.1778-0.4572 0.17779-0.1778 0.4572-0.1778h11.506q0.2794 0 0.4572 0.1778t0.1778 0.4572v2.032q0 0.254-0.1778 0.4318t-0.4572 0.1778h-8.2296v3.9878h7.6708q0.2794 0 0.4572 0.1778t0.1778 0.4572v1.8796q0 0.254-0.1778 0.4318t-0.4572 0.1778h-7.6708v4.1148h8.4328q0.2794 0 0.4572 0.1778t0.1778 0.4572v2.0066q0 0.2794-0.1778 0.4572t-0.4572 0.1778z"/>
  </g>
 </g>
</svg>
